{
	"asset":{
		"generator":"Khronos glTF Blender I/O v4.0.44",
		"version":"2.0"
	},
	"extensionsUsed":[
		"KHR_materials_emissive_strength"
	],
	"scene":0,
	"scenes":[
		{
			"name":"Scene",
			"nodes":[
				0,
				1,
				2,
				3,
				4,
				5,
				6,
				7,
				8,
				9,
				10,
				11,
				12,
				13,
				14
			]
		}
	],
	"nodes":[
		{
			"mesh":0,
			"name":"Mini Home"
		},
		{
			"mesh":1,
			"name":"Plane.006",
			"scale":[
				0.1361365169286728,
				0.1361365169286728,
				0.1361365169286728
			],
			"translation":[
				9.06828498840332,
				0.013741488568484783,
				-7.783323764801025
			]
		},
		{
			"mesh":2,
			"name":"Plane.007",
			"scale":[
				0.06842949986457825,
				0.3150566816329956,
				0.3150566816329956
			],
			"translation":[
				9.06641674041748,
				0.013883532024919987,
				-7.332930088043213
			]
		},
		{
			"mesh":3,
			"name":"Plane.008",
			"scale":[
				0.06842949986457825,
				0.3150566816329956,
				0.3150566816329956
			],
			"translation":[
				9.06641674041748,
				0.013883532024919987,
				-5.678621768951416
			]
		},
		{
			"mesh":4,
			"name":"Plane.009",
			"scale":[
				0.1361365169286728,
				0.1361365169286728,
				0.1361365169286728
			],
			"translation":[
				9.06828498840332,
				0.013741488568484783,
				-6.1290154457092285
			]
		},
		{
			"mesh":5,
			"name":"Plane.010",
			"rotation":[
				0,
				-0.7171761393547058,
				0,
				0.6968920230865479
			],
			"scale":[
				0.06842949986457825,
				0.3150566816329956,
				0.3150566816329956
			],
			"translation":[
				7.749391078948975,
				0.013883532024919987,
				-5.471813201904297
			]
		},
		{
			"mesh":6,
			"name":"Plane.011",
			"rotation":[
				0,
				-0.7171761393547058,
				0,
				0.6968920230865479
			],
			"scale":[
				0.1361365169286728,
				0.1361365169286728,
				0.1361365169286728
			],
			"translation":[
				8.199546813964844,
				0.013741488568484783,
				-5.457027435302734
			]
		},
		{
			"mesh":7,
			"name":"Plane.012",
			"rotation":[
				0,
				-0.7171761393547058,
				0,
				0.6968920230865479
			],
			"scale":[
				0.1361365169286728,
				0.1361365169286728,
				0.1361365169286728
			],
			"translation":[
				6.51798152923584,
				0.013741488568484783,
				-5.457027435302734
			]
		},
		{
			"mesh":8,
			"name":"Plane.013",
			"rotation":[
				0,
				-0.7171761393547058,
				0,
				0.6968920230865479
			],
			"scale":[
				0.06842949986457825,
				0.3150566816329956,
				0.3150566816329956
			],
			"translation":[
				6.067825794219971,
				0.013883532024919987,
				-5.471813201904297
			]
		},
		{
			"mesh":9,
			"name":"Plane.014",
			"rotation":[
				0,
				-0.7171761393547058,
				0,
				0.6968920230865479
			],
			"scale":[
				0.06842949986457825,
				0.3150566816329956,
				0.3150566816329956
			],
			"translation":[
				4.393368244171143,
				0.013883532024919987,
				-5.471813201904297
			]
		},
		{
			"mesh":10,
			"name":"Plane.015",
			"rotation":[
				0,
				-0.7171761393547058,
				0,
				0.6968920230865479
			],
			"scale":[
				0.1361365169286728,
				0.1361365169286728,
				0.1361365169286728
			],
			"translation":[
				4.84352445602417,
				0.013741488568484783,
				-5.457027435302734
			]
		},
		{
			"mesh":11,
			"name":"Plane.016",
			"scale":[
				1.936861276626587,
				1.936861276626587,
				1.936861276626587
			],
			"translation":[
				8.991780281066895,
				0.0745476633310318,
				-10.82954216003418
			]
		},
		{
			"mesh":12,
			"name":"Text",
			"translation":[
				9.04733943939209,
				0.13915570080280304,
				-10.96436882019043
			]
		},
		{
			"mesh":13,
			"name":"Plane.017",
			"scale":[
				1.1648985147476196,
				0.810297966003418,
				0.810297966003418
			],
			"translation":[
				3.431387424468994,
				0.0011959075927734375,
				-1.8818694353103638
			]
		},
		{
			"mesh":14,
			"name":"Text.001",
			"rotation":[
				0,
				-0.999993085861206,
				0,
				0.0037180855870246887
			],
			"scale":[
				0.5846889019012451,
				0.5846889019012451,
				0.5846889019012451
			],
			"translation":[
				3.4673380851745605,
				0.03394642099738121,
				-1.8166457414627075
			]
		}
	],
	"materials":[
		{
			"doubleSided":true,
			"name":"Material",
			"pbrMetallicRoughness":{
				"baseColorTexture":{
					"index":0
				},
				"metallicFactor":0,
				"roughnessFactor":0.5
			}
		},
		{
			"doubleSided":true,
			"emissiveFactor":[
				0.010283822193741798,
				1,
				0
			],
			"extensions":{
				"KHR_materials_emissive_strength":{
					"emissiveStrength":1.399999976158142
				}
			},
			"name":"Material.002",
			"pbrMetallicRoughness":{
				"baseColorTexture":{
					"index":1
				},
				"metallicFactor":0,
				"roughnessFactor":0.5
			}
		},
		{
			"doubleSided":true,
			"emissiveFactor":[
				0.010283822193741798,
				1,
				0
			],
			"extensions":{
				"KHR_materials_emissive_strength":{
					"emissiveStrength":1.399999976158142
				}
			},
			"name":"Material.003",
			"pbrMetallicRoughness":{
				"baseColorTexture":{
					"index":2
				},
				"metallicFactor":0,
				"roughnessFactor":0.5
			}
		},
		{
			"doubleSided":true,
			"emissiveFactor":[
				0.010283822193741798,
				1,
				0
			],
			"extensions":{
				"KHR_materials_emissive_strength":{
					"emissiveStrength":1.399999976158142
				}
			},
			"name":"Material.005",
			"pbrMetallicRoughness":{
				"baseColorTexture":{
					"index":3
				},
				"metallicFactor":0,
				"roughnessFactor":0.5
			}
		},
		{
			"doubleSided":true,
			"emissiveFactor":[
				0.010283822193741798,
				1,
				0
			],
			"extensions":{
				"KHR_materials_emissive_strength":{
					"emissiveStrength":1.399999976158142
				}
			},
			"name":"Material.006",
			"pbrMetallicRoughness":{
				"baseColorTexture":{
					"index":4
				},
				"metallicFactor":0,
				"roughnessFactor":0.5
			}
		},
		{
			"doubleSided":true,
			"emissiveFactor":[
				0.0066109094553643555,
				0.07894489294618978,
				0
			],
			"name":"Material.007",
			"pbrMetallicRoughness":{
				"baseColorTexture":{
					"index":5
				},
				"metallicFactor":0,
				"roughnessFactor":0.5
			}
		},
		{
			"doubleSided":true,
			"name":"Material.008",
			"pbrMetallicRoughness":{
				"baseColorFactor":[
					1,
					0.9840737581253052,
					0.9960184097290039,
					1
				]
			}
		},
		{
			"doubleSided":true,
			"name":"Material.009",
			"pbrMetallicRoughness":{
				"baseColorFactor":[
					0.8012214303016663,
					0.0007473698351532221,
					0,
					1
				],
				"metallicFactor":0.032786883413791656,
				"roughnessFactor":0.3579235076904297
			}
		}
	],
	"meshes":[
		{
			"name":"Mini Home",
			"primitives":[
				{
					"attributes":{
						"POSITION":0,
						"NORMAL":1,
						"TEXCOORD_0":2
					},
					"indices":3,
					"material":0
				}
			]
		},
		{
			"name":"Plane.006",
			"primitives":[
				{
					"attributes":{
						"POSITION":4,
						"NORMAL":5,
						"TEXCOORD_0":6
					},
					"indices":7,
					"material":1
				}
			]
		},
		{
			"name":"Plane.007",
			"primitives":[
				{
					"attributes":{
						"POSITION":8,
						"NORMAL":9,
						"TEXCOORD_0":10
					},
					"indices":7,
					"material":1
				}
			]
		},
		{
			"name":"Plane.008",
			"primitives":[
				{
					"attributes":{
						"POSITION":11,
						"NORMAL":12,
						"TEXCOORD_0":13
					},
					"indices":7,
					"material":2
				}
			]
		},
		{
			"name":"Plane.009",
			"primitives":[
				{
					"attributes":{
						"POSITION":14,
						"NORMAL":15,
						"TEXCOORD_0":16
					},
					"indices":7,
					"material":2
				}
			]
		},
		{
			"name":"Plane.012",
			"primitives":[
				{
					"attributes":{
						"POSITION":17,
						"NORMAL":18,
						"TEXCOORD_0":19
					},
					"indices":7,
					"material":2
				}
			]
		},
		{
			"name":"Plane.013",
			"primitives":[
				{
					"attributes":{
						"POSITION":20,
						"NORMAL":21,
						"TEXCOORD_0":22
					},
					"indices":7,
					"material":2
				}
			]
		},
		{
			"name":"Plane.014",
			"primitives":[
				{
					"attributes":{
						"POSITION":23,
						"NORMAL":24,
						"TEXCOORD_0":25
					},
					"indices":7,
					"material":3
				}
			]
		},
		{
			"name":"Plane.015",
			"primitives":[
				{
					"attributes":{
						"POSITION":26,
						"NORMAL":27,
						"TEXCOORD_0":28
					},
					"indices":7,
					"material":3
				}
			]
		},
		{
			"name":"Plane.016",
			"primitives":[
				{
					"attributes":{
						"POSITION":29,
						"NORMAL":30,
						"TEXCOORD_0":31
					},
					"indices":7,
					"material":4
				}
			]
		},
		{
			"name":"Plane.017",
			"primitives":[
				{
					"attributes":{
						"POSITION":32,
						"NORMAL":33,
						"TEXCOORD_0":34
					},
					"indices":7,
					"material":4
				}
			]
		},
		{
			"name":"Plane.018",
			"primitives":[
				{
					"attributes":{
						"POSITION":35,
						"NORMAL":36,
						"TEXCOORD_0":37
					},
					"indices":7,
					"material":5
				}
			]
		},
		{
			"name":"Text",
			"primitives":[
				{
					"attributes":{
						"POSITION":38,
						"NORMAL":39,
						"TEXCOORD_0":40
					},
					"indices":41,
					"material":6
				}
			]
		},
		{
			"name":"Plane.019",
			"primitives":[
				{
					"attributes":{
						"POSITION":42,
						"NORMAL":43,
						"TEXCOORD_0":44
					},
					"indices":7,
					"material":7
				}
			]
		},
		{
			"name":"Text.001",
			"primitives":[
				{
					"attributes":{
						"POSITION":45,
						"NORMAL":46,
						"TEXCOORD_0":47
					},
					"indices":48,
					"material":0
				}
			]
		}
	],
	"textures":[
		{
			"sampler":0,
			"source":0
		},
		{
			"sampler":0,
			"source":1
		},
		{
			"sampler":0,
			"source":1
		},
		{
			"sampler":0,
			"source":1
		},
		{
			"sampler":0,
			"source":1
		},
		{
			"sampler":0,
			"source":2
		}
	],
	"images":[
		{
			"mimeType":"image/png",
			"name":"katoci new",
			"uri":"textures/katoci-new.png"
		},
		{
			"mimeType":"image/png",
			"name":"Arrows",
			"uri":"textures/Arrows.png"
		},
		{
			"mimeType":"image/png",
			"name":"Baked",
			"uri":"textures/Baked.png"
		}
	],
	"accessors":[
		{
			"bufferView":0,
			"componentType":5126,
			"count":308,
			"max":[
				14.46371841430664,
				1.309999942779541,
				0
			],
			"min":[
				0,
				-6.277330731855078e-17,
				-8.768831253051758
			],
			"type":"VEC3"
		},
		{
			"bufferView":1,
			"componentType":5126,
			"count":308,
			"type":"VEC3"
		},
		{
			"bufferView":2,
			"componentType":5126,
			"count":308,
			"type":"VEC2"
		},
		{
			"bufferView":3,
			"componentType":5123,
			"count":627,
			"type":"SCALAR"
		},
		{
			"bufferView":4,
			"componentType":5126,
			"count":4,
			"max":[
				1,
				0,
				1
			],
			"min":[
				-1,
				0,
				-1
			],
			"type":"VEC3"
		},
		{
			"bufferView":5,
			"componentType":5126,
			"count":4,
			"type":"VEC3"
		},
		{
			"bufferView":6,
			"componentType":5126,
			"count":4,
			"type":"VEC2"
		},
		{
			"bufferView":7,
			"componentType":5123,
			"count":6,
			"type":"SCALAR"
		},
		{
			"bufferView":8,
			"componentType":5126,
			"count":4,
			"max":[
				1,
				0,
				1
			],
			"min":[
				-1,
				0,
				-1
			],
			"type":"VEC3"
		},
		{
			"bufferView":9,
			"componentType":5126,
			"count":4,
			"type":"VEC3"
		},
		{
			"bufferView":10,
			"componentType":5126,
			"count":4,
			"type":"VEC2"
		},
		{
			"bufferView":11,
			"componentType":5126,
			"count":4,
			"max":[
				1,
				0,
				1
			],
			"min":[
				-1,
				0,
				-1
			],
			"type":"VEC3"
		},
		{
			"bufferView":12,
			"componentType":5126,
			"count":4,
			"type":"VEC3"
		},
		{
			"bufferView":13,
			"componentType":5126,
			"count":4,
			"type":"VEC2"
		},
		{
			"bufferView":14,
			"componentType":5126,
			"count":4,
			"max":[
				1,
				0,
				1
			],
			"min":[
				-1,
				0,
				-1
			],
			"type":"VEC3"
		},
		{
			"bufferView":15,
			"componentType":5126,
			"count":4,
			"type":"VEC3"
		},
		{
			"bufferView":16,
			"componentType":5126,
			"count":4,
			"type":"VEC2"
		},
		{
			"bufferView":17,
			"componentType":5126,
			"count":4,
			"max":[
				1,
				0,
				1
			],
			"min":[
				-1,
				0,
				-1
			],
			"type":"VEC3"
		},
		{
			"bufferView":18,
			"componentType":5126,
			"count":4,
			"type":"VEC3"
		},
		{
			"bufferView":19,
			"componentType":5126,
			"count":4,
			"type":"VEC2"
		},
		{
			"bufferView":20,
			"componentType":5126,
			"count":4,
			"max":[
				1,
				0,
				1
			],
			"min":[
				-1,
				0,
				-1
			],
			"type":"VEC3"
		},
		{
			"bufferView":21,
			"componentType":5126,
			"count":4,
			"type":"VEC3"
		},
		{
			"bufferView":22,
			"componentType":5126,
			"count":4,
			"type":"VEC2"
		},
		{
			"bufferView":23,
			"componentType":5126,
			"count":4,
			"max":[
				1,
				0,
				1
			],
			"min":[
				-1,
				0,
				-1
			],
			"type":"VEC3"
		},
		{
			"bufferView":24,
			"componentType":5126,
			"count":4,
			"type":"VEC3"
		},
		{
			"bufferView":25,
			"componentType":5126,
			"count":4,
			"type":"VEC2"
		},
		{
			"bufferView":26,
			"componentType":5126,
			"count":4,
			"max":[
				1,
				0,
				1
			],
			"min":[
				-1,
				0,
				-1
			],
			"type":"VEC3"
		},
		{
			"bufferView":27,
			"componentType":5126,
			"count":4,
			"type":"VEC3"
		},
		{
			"bufferView":28,
			"componentType":5126,
			"count":4,
			"type":"VEC2"
		},
		{
			"bufferView":29,
			"componentType":5126,
			"count":4,
			"max":[
				1,
				0,
				1
			],
			"min":[
				-1,
				0,
				-1
			],
			"type":"VEC3"
		},
		{
			"bufferView":30,
			"componentType":5126,
			"count":4,
			"type":"VEC3"
		},
		{
			"bufferView":31,
			"componentType":5126,
			"count":4,
			"type":"VEC2"
		},
		{
			"bufferView":32,
			"componentType":5126,
			"count":4,
			"max":[
				1,
				0,
				1
			],
			"min":[
				-1,
				0,
				-1
			],
			"type":"VEC3"
		},
		{
			"bufferView":33,
			"componentType":5126,
			"count":4,
			"type":"VEC3"
		},
		{
			"bufferView":34,
			"componentType":5126,
			"count":4,
			"type":"VEC2"
		},
		{
			"bufferView":35,
			"componentType":5126,
			"count":4,
			"max":[
				1,
				0,
				0.5881758332252502
			],
			"min":[
				-1,
				0,
				-0.5881758332252502
			],
			"type":"VEC3"
		},
		{
			"bufferView":36,
			"componentType":5126,
			"count":4,
			"type":"VEC3"
		},
		{
			"bufferView":37,
			"componentType":5126,
			"count":4,
			"type":"VEC2"
		},
		{
			"bufferView":38,
			"componentType":5126,
			"count":338,
			"max":[
				1.4084999561309814,
				0,
				1.0089999437332153
			],
			"min":[
				-1.3674999475479126,
				0,
				-0.6910000443458557
			],
			"type":"VEC3"
		},
		{
			"bufferView":39,
			"componentType":5126,
			"count":338,
			"type":"VEC3"
		},
		{
			"bufferView":40,
			"componentType":5126,
			"count":338,
			"type":"VEC2"
		},
		{
			"bufferView":41,
			"componentType":5123,
			"count":978,
			"type":"SCALAR"
		},
		{
			"bufferView":42,
			"componentType":5126,
			"count":4,
			"max":[
				1,
				0,
				1
			],
			"min":[
				-1,
				0,
				-1
			],
			"type":"VEC3"
		},
		{
			"bufferView":43,
			"componentType":5126,
			"count":4,
			"type":"VEC3"
		},
		{
			"bufferView":44,
			"componentType":5126,
			"count":4,
			"type":"VEC2"
		},
		{
			"bufferView":45,
			"componentType":5126,
			"count":248,
			"max":[
				1.2190001010894775,
				0,
				1
			],
			"min":[
				-1.2190001010894775,
				0,
				-0.6820000410079956
			],
			"type":"VEC3"
		},
		{
			"bufferView":46,
			"componentType":5126,
			"count":248,
			"type":"VEC3"
		},
		{
			"bufferView":47,
			"componentType":5126,
			"count":248,
			"type":"VEC2"
		},
		{
			"bufferView":48,
			"componentType":5123,
			"count":720,
			"type":"SCALAR"
		}
	],
	"bufferViews":[
		{
			"buffer":0,
			"byteLength":3696,
			"byteOffset":0,
			"target":34962
		},
		{
			"buffer":0,
			"byteLength":3696,
			"byteOffset":3696,
			"target":34962
		},
		{
			"buffer":0,
			"byteLength":2464,
			"byteOffset":7392,
			"target":34962
		},
		{
			"buffer":0,
			"byteLength":1254,
			"byteOffset":9856,
			"target":34963
		},
		{
			"buffer":0,
			"byteLength":48,
			"byteOffset":11112,
			"target":34962
		},
		{
			"buffer":0,
			"byteLength":48,
			"byteOffset":11160,
			"target":34962
		},
		{
			"buffer":0,
			"byteLength":32,
			"byteOffset":11208,
			"target":34962
		},
		{
			"buffer":0,
			"byteLength":12,
			"byteOffset":11240,
			"target":34963
		},
		{
			"buffer":0,
			"byteLength":48,
			"byteOffset":11252,
			"target":34962
		},
		{
			"buffer":0,
			"byteLength":48,
			"byteOffset":11300,
			"target":34962
		},
		{
			"buffer":0,
			"byteLength":32,
			"byteOffset":11348,
			"target":34962
		},
		{
			"buffer":0,
			"byteLength":48,
			"byteOffset":11380,
			"target":34962
		},
		{
			"buffer":0,
			"byteLength":48,
			"byteOffset":11428,
			"target":34962
		},
		{
			"buffer":0,
			"byteLength":32,
			"byteOffset":11476,
			"target":34962
		},
		{
			"buffer":0,
			"byteLength":48,
			"byteOffset":11508,
			"target":34962
		},
		{
			"buffer":0,
			"byteLength":48,
			"byteOffset":11556,
			"target":34962
		},
		{
			"buffer":0,
			"byteLength":32,
			"byteOffset":11604,
			"target":34962
		},
		{
			"buffer":0,
			"byteLength":48,
			"byteOffset":11636,
			"target":34962
		},
		{
			"buffer":0,
			"byteLength":48,
			"byteOffset":11684,
			"target":34962
		},
		{
			"buffer":0,
			"byteLength":32,
			"byteOffset":11732,
			"target":34962
		},
		{
			"buffer":0,
			"byteLength":48,
			"byteOffset":11764,
			"target":34962
		},
		{
			"buffer":0,
			"byteLength":48,
			"byteOffset":11812,
			"target":34962
		},
		{
			"buffer":0,
			"byteLength":32,
			"byteOffset":11860,
			"target":34962
		},
		{
			"buffer":0,
			"byteLength":48,
			"byteOffset":11892,
			"target":34962
		},
		{
			"buffer":0,
			"byteLength":48,
			"byteOffset":11940,
			"target":34962
		},
		{
			"buffer":0,
			"byteLength":32,
			"byteOffset":11988,
			"target":34962
		},
		{
			"buffer":0,
			"byteLength":48,
			"byteOffset":12020,
			"target":34962
		},
		{
			"buffer":0,
			"byteLength":48,
			"byteOffset":12068,
			"target":34962
		},
		{
			"buffer":0,
			"byteLength":32,
			"byteOffset":12116,
			"target":34962
		},
		{
			"buffer":0,
			"byteLength":48,
			"byteOffset":12148,
			"target":34962
		},
		{
			"buffer":0,
			"byteLength":48,
			"byteOffset":12196,
			"target":34962
		},
		{
			"buffer":0,
			"byteLength":32,
			"byteOffset":12244,
			"target":34962
		},
		{
			"buffer":0,
			"byteLength":48,
			"byteOffset":12276,
			"target":34962
		},
		{
			"buffer":0,
			"byteLength":48,
			"byteOffset":12324,
			"target":34962
		},
		{
			"buffer":0,
			"byteLength":32,
			"byteOffset":12372,
			"target":34962
		},
		{
			"buffer":0,
			"byteLength":48,
			"byteOffset":12404,
			"target":34962
		},
		{
			"buffer":0,
			"byteLength":48,
			"byteOffset":12452,
			"target":34962
		},
		{
			"buffer":0,
			"byteLength":32,
			"byteOffset":12500,
			"target":34962
		},
		{
			"buffer":0,
			"byteLength":4056,
			"byteOffset":12532,
			"target":34962
		},
		{
			"buffer":0,
			"byteLength":4056,
			"byteOffset":16588,
			"target":34962
		},
		{
			"buffer":0,
			"byteLength":2704,
			"byteOffset":20644,
			"target":34962
		},
		{
			"buffer":0,
			"byteLength":1956,
			"byteOffset":23348,
			"target":34963
		},
		{
			"buffer":0,
			"byteLength":48,
			"byteOffset":25304,
			"target":34962
		},
		{
			"buffer":0,
			"byteLength":48,
			"byteOffset":25352,
			"target":34962
		},
		{
			"buffer":0,
			"byteLength":32,
			"byteOffset":25400,
			"target":34962
		},
		{
			"buffer":0,
			"byteLength":2976,
			"byteOffset":25432,
			"target":34962
		},
		{
			"buffer":0,
			"byteLength":2976,
			"byteOffset":28408,
			"target":34962
		},
		{
			"buffer":0,
			"byteLength":1984,
			"byteOffset":31384,
			"target":34962
		},
		{
			"buffer":0,
			"byteLength":1440,
			"byteOffset":33368,
			"target":34963
		}
	],
	"samplers":[
		{
			"magFilter":9729,
			"minFilter":9987
		}
	],
	"buffers":[
		{
			"byteLength":34808,
			"uri":"Mini_Home.bin"
		}
	]
}
